<svg width="16" height="16" viewBox="0 0 16 16" fill="none" xmlns="http://www.w3.org/2000/svg">
<path d="M13.5118 2.48816L13.8654 2.1346L13.8654 2.1346L13.5118 2.48816ZM4.33337 14.0237V14.5237C4.46598 14.5237 4.59316 14.471 4.68692 14.3772L4.33337 14.0237ZM2.00004 14.0237H1.50004C1.50004 14.2998 1.7239 14.5237 2.00004 14.5237V14.0237ZM2.00004 11.6429L1.64648 11.2894C1.55272 11.3832 1.50004 11.5103 1.50004 11.6429H2.00004ZM11.5084 2.84171C11.964 2.3861 12.7027 2.3861 13.1583 2.84171L13.8654 2.1346C13.0193 1.28847 11.6474 1.28847 10.8013 2.1346L11.5084 2.84171ZM13.1583 2.84171C13.6139 3.29732 13.6139 4.03601 13.1583 4.49162L13.8654 5.19873C14.7115 4.3526 14.7115 2.98074 13.8654 2.1346L13.1583 2.84171ZM13.1583 4.49162L3.97982 13.6701L4.68692 14.3772L13.8654 5.19873L13.1583 4.49162ZM4.33337 13.5237H2.00004V14.5237H4.33337V13.5237ZM10.8013 2.1346L1.64648 11.2894L2.35359 11.9965L11.5084 2.84171L10.8013 2.1346ZM1.50004 11.6429V14.0237H2.50004V11.6429H1.50004ZM9.80127 3.84171L12.1583 6.19873L12.8654 5.49162L10.5084 3.1346L9.80127 3.84171Z" fill="white"/>
</svg>
